# xmcd CD database file
#
# Track frame offsets:
#	150
#	18187
#	43037
#	68227
#
# Disc length: 1361 seconds
#
# Revision: 2
# Processed by: cddbd v1.5.1PL0 Copyright (c) Steve Scherf et al.
# Submitted via: CDex 1.51
#
DISCID=2b054f04
DTITLE=清春 - EMILY
DYEAR=2004
DGENRE=Rock
TTITLE0=EMILY
TTITLE1=空
TTITLE2=カーテン
TTITLE3=背中まで45分
EXTD=YEAR: 2004
EXTT0=
EXTT1=
EXTT2=
EXTT3=
PLAYORDER=
